<?xml version="1.0" encoding="UTF-8"?> <svg xmlns="http://www.w3.org/2000/svg" xmlns:xlink="http://www.w3.org/1999/xlink" width="260px" height="46px" viewBox="0 0 260 46" version="1.1"><!-- Generator: Sketch 51.3 (57544) - http://www.bohemiancoding.com/sketch --><title>mmp_com_logo-12-1-13</title><desc>Created with Sketch.</desc><defs></defs><g id="Page-1" stroke="none" stroke-width="1" fill="none" fill-rule="evenodd"><g id="mmp_com_logo-12-1-13" fill-rule="nonzero"><path d="M23.83,22.489 C24.133,21.105 25.416,20.6 26.348,20.415 L27.404,21.56 L32.503,21.617 L34.738,17.482 L30.084,13.54 L25.388,12.912 L23.45,17.275 L26.043,20.085 C25.74,20.28 25.275,20.368 24.579,20.27 C24.001,20.189 21.466,16.352 21.339,15.201 C21.163,13.609 23.993,12.755 23.993,12.755 C23.993,12.755 27.202,12.111 30.09,11.6 C32.978,11.09 34.084,12.44 35.528,12.745 C35.688,12.779 35.908,12.807 36.468,13.019 L36.879,12.443 C36.879,12.443 37.309,11.537 37.527,10.958 C37.733,10.408 37.933,9.721 38.591,9.09 C39.249,8.46 41.913,8.695 42.468,9.937 C42.468,9.937 42.634,10.343 42.097,12.031 C41.997,12.347 41.52,13.574 40.739,14.065 L40.314,14.494 C41.023,14.714 42.253,14.452 43.195,14.132 L44.325,13.643 C44.483,13.526 44.592,13.49 44.73,13.469 L47.068,12.457 C47.068,12.457 49.195,11.44 50.945,10.616 C52.694,9.791 52.485,9.64 53.135,9.416 C54.872,8.817 55.162,10.195 55.041,10.726 C54.919,11.257 54.195,11.984 53.771,11.886 C53.348,11.788 52.82,11.665 52.299,11.991 C51.778,12.319 50.11,13.273 50.11,13.273 C50.11,13.273 47.555,15.093 45.481,16.468 C43.457,17.789 41.422,18.916 40.432,19.449 C41.161,18.133 40.87,17.804 40.87,17.804 C40.584,18.667 39.731,19.67 39.184,20.255 C38.083,21.07 36.322,22.302 34.901,23.221 C33.27,24.275 32.191,24.855 30.862,25.527 C30.599,24.785 30.144,24.122 29.861,23.754 C30.845,26.918 30.708,28.984 30.614,29.841 C30.505,30.822 30.035,31.204 28.769,31.204 C27.683,31.204 27.604,31.187 26.706,30.876 C26.435,30.781 26.045,30.588 25.949,30.548 C25.662,30.425 22.927,29.436 22.29,29.131 C21.652,28.826 20.234,28.297 18.108,27.847 C17.145,27.643 16.294,27.621 15.64,27.609 C16.405,27.774 17.837,28.117 19.04,28.623 C18.104,28.819 16.993,29.049 16.612,29.134 C15.948,29.282 13.991,29.587 12.109,30.512 C10.228,31.437 9.29,32.705 8.879,32.387 C8.47,32.068 8.924,31.197 9.206,30.8 C9.49,30.403 10.256,29.809 10.372,29.196 C10.487,28.584 11.054,27.991 11.344,27.712 C11.634,27.433 12.316,28.126 13.002,28.13 C13.265,28.132 13.785,27.846 14.386,27.46 C14.33,27.422 14.295,27.373 14.278,27.31 C14.146,26.788 15.071,26.367 15.554,26.223 C16.039,26.08 17.043,26.086 17.526,25.66 C18.01,25.234 18.85,25.112 19.265,25.07 C19.679,25.028 19.795,26.031 20.353,26.473 C20.824,26.848 23.212,26.878 24.676,27.018 C23.656,26.702 21.782,26.504 21.171,26.41 C20.639,26.328 20.38,25.667 20.168,25.224 C20.442,25.224 20.643,25.223 20.719,25.203 C21.009,25.125 21.68,24.692 21.68,24.692 C22.093,24.307 22.723,23.733 23.301,23.374 C23.396,23.836 23.552,24.397 23.898,24.886 C24.154,25.248 24.653,25.76 25.324,26.182 C24.549,25.465 23.455,24.201 23.83,22.489 Z" id="Shape" fill="#E95C2E"></path><path d="M0.348,18.805 C2.523,6.43 14.28,-1.833 26.609,0.349 C30.465,1.032 33.92,2.654 36.78,4.94 C34.371,3.202 31.545,1.968 28.427,1.417 C17.33,-0.548 6.749,6.888 4.792,18.026 C2.835,29.163 10.245,39.785 21.342,41.748 C32.439,43.711 43.02,36.275 44.977,25.138 C45.219,23.76 45.318,22.389 45.284,21.042 C45.422,22.894 45.334,24.794 44.998,26.707 C42.824,39.081 31.067,47.344 18.736,45.162 C6.406,42.981 -1.826,31.18 0.348,18.805 Z" id="Shape" fill="#E95C2E"></path><path d="M25.708,13.172 L30.028,13.884 L34.181,17.442 L29.892,16.796 L25.708,13.172 Z M25.618,13.335 L29.77,16.958 L27.439,21.179 L23.788,17.243 L25.618,13.335 Z M29.958,17.03 L34.326,17.654 L32.315,21.297 L27.602,21.237 L29.958,17.03 Z" id="Shape" fill="#3D3E3E"></path><path d="M29.92,11.222 C29.92,11.222 5.66,9.906 6.831,22.251 C6.831,22.251 13.12,16.218 19.221,14.39 C19.221,14.39 12.709,17.52 9.235,21.243 C9.235,21.243 17.032,21.484 19.774,24.579 C19.774,24.579 22.324,22.934 23.203,22.746 C23.203,22.746 23.17,21.676 24.021,20.644 C24.021,20.644 20.076,16.501 21.023,14.304 C22.097,11.814 29.92,11.222 29.92,11.222 Z" id="Shape" fill="#3D3E3E"></path><path d="M65.171,32.815 L66.564,27.325 C66.822,26.311 67.157,25.545 67.519,25.026 C67.905,24.509 68.422,24.26 69.041,24.26 C69.299,24.26 69.53,24.321 69.685,24.467 C69.841,24.612 69.918,24.819 69.918,25.089 C69.918,25.606 69.866,26.062 69.737,26.435 L68.111,32.815 L72.987,32.815 L74.561,26.601 C74.742,25.875 74.845,25.192 74.845,24.529 C74.845,23.411 74.535,22.582 73.917,22.003 C73.323,21.442 72.42,21.153 71.233,21.153 C70.304,21.153 69.479,21.319 68.782,21.67 C68.06,22.003 67.441,22.541 66.899,23.245 L66.796,23.245 C66.564,22.582 66.203,22.064 65.66,21.691 C65.145,21.339 64.371,21.153 63.391,21.153 C62.436,21.153 61.636,21.319 60.992,21.629 C60.347,21.94 59.779,22.478 59.262,23.245 L59.159,23.245 L59.366,21.36 L55.471,21.36 L52.452,32.815 L57.328,32.815 L58.824,27.242 C59.082,26.248 59.418,25.524 59.804,25.005 C60.166,24.509 60.656,24.26 61.224,24.26 C61.843,24.26 62.126,24.57 62.126,25.213 C62.126,25.42 62.075,25.834 61.946,26.435 L60.295,32.815 L65.171,32.815 Z" id="Shape" fill="#E95C2E"></path><path d="M77.265,32.69 L76.98,33.105 C76.62,33.643 76.206,34.016 75.743,34.265 C75.278,34.514 74.684,34.638 73.936,34.638 C73.421,34.638 72.956,34.596 72.569,34.514 L72.569,37.621 C73.085,37.724 73.73,37.786 74.504,37.786 C76.052,37.786 77.368,37.517 78.425,36.958 C79.483,36.399 80.438,35.508 81.238,34.265 L89.674,21.36 L84.436,21.36 C82.527,24.819 81.547,26.642 81.418,26.87 C81.315,27.098 81.108,27.656 80.799,28.548 L80.696,28.548 L80.696,27.677 L80.67,27.035 L80.128,21.36 L75.226,21.36 L77.265,32.69 Z" id="Shape" fill="#E95C2E"></path><path d="M99.889,32.815 L101.281,27.325 C101.54,26.311 101.875,25.545 102.236,25.026 C102.623,24.509 103.14,24.26 103.758,24.26 C104.017,24.26 104.248,24.321 104.403,24.467 C104.558,24.612 104.635,24.819 104.635,25.089 C104.635,25.606 104.583,26.062 104.455,26.435 L102.829,32.815 L107.705,32.815 L109.279,26.601 C109.459,25.875 109.563,25.192 109.563,24.529 C109.563,23.411 109.253,22.582 108.634,22.003 C108.041,21.442 107.138,21.153 105.951,21.153 C105.022,21.153 104.197,21.319 103.5,21.67 C102.778,22.003 102.158,22.541 101.617,23.245 L101.514,23.245 C101.281,22.582 100.921,22.064 100.378,21.691 C99.862,21.339 99.089,21.153 98.108,21.153 C97.154,21.153 96.354,21.319 95.709,21.629 C95.065,21.94 94.497,22.478 93.98,23.245 L93.877,23.245 L94.083,21.36 L90.189,21.36 L87.17,32.815 L92.046,32.815 L93.542,27.242 C93.8,26.248 94.135,25.524 94.522,25.005 C94.883,24.509 95.374,24.26 95.942,24.26 C96.56,24.26 96.844,24.57 96.844,25.213 C96.844,25.42 96.793,25.834 96.664,26.435 L95.012,32.815 L99.889,32.815 Z" id="Shape" fill="#3D3E3E"></path><path d="M120.211,32.069 C121.424,31.427 122.353,30.557 123.024,29.397 C123.695,28.258 124.03,26.974 124.03,25.566 C124.03,24.156 123.54,23.059 122.611,22.292 C121.656,21.526 120.29,21.153 118.534,21.153 C116.935,21.153 115.517,21.463 114.304,22.106 C113.092,22.748 112.163,23.618 111.493,24.777 C110.822,25.917 110.485,27.202 110.485,28.61 C110.485,30.018 110.95,31.116 111.904,31.882 C112.859,32.65 114.226,33.022 115.981,33.022 C117.58,33.022 118.999,32.711 120.211,32.069 Z M118.767,24.426 C118.948,24.654 119.051,24.985 119.051,25.441 C119.051,26.663 118.793,27.74 118.303,28.673 C117.786,29.604 117.194,30.081 116.523,30.081 C115.826,30.081 115.465,29.625 115.465,28.734 C115.465,27.512 115.697,26.455 116.188,25.503 C116.677,24.57 117.271,24.095 117.968,24.095 C118.303,24.095 118.56,24.198 118.767,24.426 Z" id="Shape" fill="#3D3E3E"></path><path d="M131.045,32.815 L138.759,21.36 L133.548,21.36 C131.484,24.902 130.375,26.828 130.22,27.098 C130.04,27.388 129.884,27.677 129.755,28.009 C129.601,28.34 129.523,28.548 129.523,28.652 L129.42,28.652 C129.497,28.34 129.523,27.947 129.523,27.449 L129.188,21.36 L124.338,21.36 L126.17,32.815 L131.045,32.815 Z" id="Shape" fill="#3D3E3E"></path><path d="M144.124,21.36 L139.222,21.36 L136.203,32.815 L141.079,32.815 L144.124,21.36 Z M142.215,20.262 C143.143,20.262 143.84,20.076 144.33,19.703 C144.82,19.351 145.052,18.812 145.052,18.149 C145.052,17.693 144.846,17.342 144.433,17.093 C144.02,16.844 143.427,16.72 142.653,16.72 C141.75,16.72 141.053,16.906 140.564,17.258 C140.073,17.611 139.816,18.149 139.816,18.833 C139.816,19.785 140.615,20.262 142.215,20.262 Z" id="Shape" fill="#3D3E3E"></path><path d="M152.643,26.559 L151.017,32.815 L155.893,32.815 L157.493,26.725 C157.699,25.896 157.802,25.13 157.802,24.405 C157.802,23.39 157.467,22.603 156.822,22.022 C156.151,21.442 155.222,21.153 154.035,21.153 C153.132,21.153 152.358,21.298 151.74,21.567 C151.12,21.857 150.578,22.313 150.115,22.955 L150.01,22.955 L150.166,21.36 L146.27,21.36 L143.252,32.815 L148.128,32.815 L149.598,27.223 C149.856,26.207 150.192,25.462 150.604,24.985 C150.992,24.509 151.455,24.26 151.92,24.26 C152.178,24.26 152.41,24.321 152.591,24.467 C152.772,24.612 152.875,24.84 152.875,25.13 C152.875,25.566 152.797,26.041 152.643,26.559 Z" id="Shape" fill="#3D3E3E"></path><path d="M167.684,21.36 C167.401,21.298 167.04,21.256 166.575,21.214 C166.085,21.174 165.647,21.153 165.208,21.153 C163.247,21.153 161.725,21.547 160.565,22.313 C159.429,23.1 158.861,24.135 158.861,25.462 C158.861,26.663 159.403,27.616 160.513,28.299 C159.661,28.61 159.017,28.941 158.603,29.315 C158.165,29.687 157.958,30.123 157.958,30.598 C157.958,30.888 158.061,31.137 158.243,31.386 C158.449,31.655 158.707,31.841 159.017,32.007 C157.804,32.317 156.901,32.711 156.333,33.188 C155.766,33.664 155.482,34.244 155.482,34.907 C155.482,35.797 156.024,36.522 157.055,37.02 C158.114,37.538 159.532,37.786 161.313,37.786 C163.918,37.786 165.93,37.393 167.349,36.606 C168.769,35.818 169.465,34.7 169.465,33.25 C169.465,32.422 169.155,31.779 168.51,31.324 C167.866,30.888 166.833,30.577 165.363,30.412 L163.634,30.226 C162.705,30.123 162.242,29.915 162.242,29.625 C162.242,29.501 162.293,29.397 162.422,29.315 C162.525,29.252 162.68,29.169 162.834,29.107 C163.247,29.19 163.764,29.231 164.408,29.231 C166.162,29.231 167.581,28.838 168.665,28.051 C169.774,27.242 170.317,26.207 170.317,24.923 C170.317,24.57 170.265,24.239 170.188,23.97 L172.199,23.452 L172.716,21.36 L167.684,21.36 Z M160.177,33.56 C160.539,33.353 161.029,33.23 161.699,33.146 L163.144,33.271 C163.841,33.332 164.305,33.416 164.589,33.539 C164.873,33.664 165.002,33.851 165.002,34.099 C165.002,34.451 164.744,34.721 164.176,34.928 C163.634,35.114 162.834,35.217 161.777,35.217 C160.358,35.217 159.635,34.928 159.635,34.347 C159.635,34.037 159.816,33.767 160.177,33.56 Z M163.66,24.736 C163.79,24.363 163.97,24.074 164.202,23.846 C164.434,23.618 164.718,23.514 165.027,23.514 C165.544,23.514 165.801,23.825 165.801,24.467 C165.801,25.089 165.673,25.606 165.389,26.083 C165.105,26.539 164.744,26.767 164.305,26.767 C163.738,26.767 163.454,26.455 163.454,25.813 C163.454,25.462 163.531,25.11 163.66,24.736 Z" id="Shape" fill="#3D3E3E"></path><path d="M182.133,32.048 C183.114,31.386 183.888,30.453 184.481,29.252 C185.075,28.051 185.358,26.746 185.358,25.378 C185.358,24.074 184.972,23.038 184.223,22.271 C183.475,21.526 182.469,21.153 181.153,21.153 C179.786,21.153 178.702,21.65 177.903,22.645 L177.799,22.645 L177.954,21.36 L174.058,21.36 L169.725,37.786 L174.6,37.786 L175.246,35.301 C175.606,33.912 175.839,32.669 175.942,31.552 L176.045,31.552 C176.794,32.525 177.748,33.022 178.96,33.022 C180.096,33.022 181.179,32.69 182.133,32.048 Z M180.379,25.752 C180.379,26.435 180.276,27.098 180.044,27.74 C179.811,28.403 179.502,28.92 179.141,29.294 C178.754,29.687 178.367,29.874 177.98,29.874 C177.619,29.874 177.36,29.749 177.154,29.48 C176.974,29.21 176.871,28.859 176.871,28.424 C176.871,27.761 176.974,27.098 177.206,26.435 C177.412,25.771 177.722,25.254 178.109,24.882 C178.47,24.488 178.883,24.302 179.296,24.302 C180.018,24.302 180.379,24.777 180.379,25.752 Z" id="Shape" fill="#E95C2E"></path><path d="M190.594,28.424 C190.594,27.388 190.852,26.435 191.368,25.585 C191.884,24.736 192.451,24.302 193.097,24.302 C193.457,24.302 193.716,24.426 193.871,24.695 C194.051,24.964 194.128,25.317 194.128,25.752 C194.128,26.394 194.025,27.035 193.793,27.698 C193.56,28.361 193.251,28.879 192.89,29.273 C192.503,29.666 192.091,29.874 191.677,29.874 C190.955,29.874 190.594,29.397 190.594,28.424 Z M199.932,21.36 L196.038,21.36 L195.367,22.768 L195.264,22.768 C194.85,22.189 194.36,21.795 193.819,21.526 C193.303,21.277 192.658,21.153 191.961,21.153 C190.826,21.153 189.794,21.463 188.866,22.106 C187.911,22.748 187.138,23.7 186.544,24.964 C185.924,26.207 185.615,27.449 185.615,28.652 C185.615,30.06 185.95,31.137 186.647,31.903 C187.344,32.65 188.35,33.022 189.666,33.022 C190.361,33.022 190.981,32.918 191.523,32.69 C192.065,32.483 192.58,32.11 193.045,31.572 L193.148,31.572 L193.019,32.815 L196.915,32.815 L199.932,21.36 Z" id="Shape" fill="#E95C2E"></path><path d="M207.205,21.65 C206.56,21.961 205.968,22.52 205.426,23.266 L205.323,23.266 L205.554,21.36 L201.659,21.36 L198.641,32.815 L203.517,32.815 L204.858,27.781 C205.116,26.808 205.529,26.083 206.045,25.606 C206.56,25.13 207.231,24.882 208.108,24.882 C208.676,24.882 209.193,24.964 209.656,25.11 L210.715,21.235 C210.508,21.174 210.173,21.153 209.708,21.153 C208.676,21.153 207.851,21.319 207.205,21.65 Z" id="Shape" fill="#E95C2E"></path><path d="M215.668,29.231 C215.668,29.045 215.746,28.692 215.875,28.175 L216.932,24.302 L220.57,24.302 L221.37,21.36 L217.732,21.36 L218.351,19.061 L215.101,19.061 L213.372,21.484 L210.638,22.375 L210.122,24.302 L212.056,24.302 L210.999,28.361 C210.793,29.127 210.689,29.749 210.689,30.267 C210.689,31.24 211.024,31.945 211.67,32.38 C212.289,32.815 213.243,33.022 214.481,33.022 C216.21,33.022 217.629,32.794 218.764,32.338 L218.764,29.397 C217.783,29.708 217.009,29.874 216.468,29.874 C215.926,29.874 215.668,29.666 215.668,29.231 Z" id="Shape" fill="#E95C2E"></path><path d="M229.445,26.559 L227.82,32.815 L232.696,32.815 L234.295,26.725 C234.502,25.896 234.605,25.13 234.605,24.405 C234.605,23.39 234.27,22.603 233.625,22.022 C232.954,21.442 232.025,21.153 230.839,21.153 C229.935,21.153 229.161,21.298 228.543,21.567 C227.923,21.857 227.381,22.313 226.917,22.955 L226.814,22.955 L226.969,21.36 L223.073,21.36 L220.055,32.815 L224.931,32.815 L226.401,27.223 C226.659,26.207 226.995,25.462 227.407,24.985 C227.794,24.509 228.258,24.26 228.723,24.26 C228.981,24.26 229.213,24.321 229.394,24.467 C229.574,24.612 229.677,24.84 229.677,25.13 C229.677,25.566 229.6,26.041 229.445,26.559 Z" id="Shape" fill="#E95C2E"></path><path d="M243.481,32.794 C244.306,32.65 245.183,32.38 246.113,31.986 L246.113,29.21 C245.313,29.562 244.565,29.811 243.946,29.977 C243.3,30.123 242.655,30.205 241.984,30.205 C240.618,30.205 239.921,29.708 239.921,28.713 L239.921,28.548 L240.669,28.548 C243.146,28.548 245.055,28.175 246.371,27.449 C247.686,26.725 248.331,25.689 248.331,24.342 C248.331,23.369 247.867,22.603 246.964,22.022 C246.035,21.442 244.797,21.153 243.197,21.153 C241.598,21.153 240.179,21.442 238.967,22.043 C237.728,22.624 236.773,23.493 236.077,24.633 C235.38,25.771 235.019,27.056 235.019,28.485 C235.019,29.915 235.509,31.033 236.516,31.82 C237.496,32.629 238.889,33.022 240.669,33.022 C241.727,33.022 242.681,32.939 243.481,32.794 Z M243.455,24.032 C243.635,24.177 243.714,24.363 243.714,24.57 C243.714,25.026 243.455,25.399 242.94,25.689 C242.398,25.959 241.701,26.103 240.772,26.103 L240.411,26.103 C240.515,25.503 240.772,24.985 241.21,24.509 C241.675,24.032 242.14,23.804 242.655,23.804 C243.017,23.804 243.3,23.888 243.455,24.032 Z" id="Shape" fill="#E95C2E"></path><path d="M255.893,21.65 C255.248,21.961 254.655,22.52 254.114,23.266 L254.01,23.266 L254.242,21.36 L250.347,21.36 L247.328,32.815 L252.204,32.815 L253.546,27.781 C253.803,26.808 254.217,26.083 254.732,25.606 C255.248,25.13 255.919,24.882 256.796,24.882 C257.364,24.882 257.88,24.964 258.344,25.11 L259.402,21.235 C259.196,21.174 258.86,21.153 258.396,21.153 C257.364,21.153 256.539,21.319 255.893,21.65 Z" id="Shape" fill="#E95C2E"></path></g></g></svg> 