<svg width="123" height="24" viewBox="0 0 123 24" fill="none" xmlns="http://www.w3.org/2000/svg">
<path d="M41.0739 17.9996C42.4756 17.9996 43.6885 17.7231 44.7112 17.1716C45.7532 16.6007 46.6153 15.7623 47.2975 14.6566L45.45 13.485C44.9759 14.2846 44.399 14.8853 43.7168 15.2857C43.0345 15.6667 42.2482 15.8566 41.3579 15.8566C40.4675 15.8566 39.7094 15.6667 39.0837 15.2857C38.458 14.9046 37.9852 14.3531 37.6627 13.6284C37.3402 12.9051 37.1796 12.028 37.1796 10.9998C37.1989 9.98967 37.3698 9.14231 37.691 8.45641C38.0315 7.75113 38.5056 7.21895 39.112 6.85598C39.7377 6.47492 40.4855 6.28504 41.3566 6.28504C42.0953 6.28504 42.7403 6.44651 43.2889 6.77072C43.8388 7.09494 44.2641 7.54188 44.5673 8.11411C44.8898 8.68504 45.0504 9.3619 45.0504 10.1434C45.0504 10.2764 45.0221 10.4482 44.9656 10.6575C44.9091 10.8487 44.8525 10.9907 44.7947 11.0863L45.7044 9.77137H36.3252V11.7141H47.4941C47.4941 11.6766 47.4941 11.5901 47.4941 11.4571C47.5134 11.3046 47.5224 11.1613 47.5224 11.0282C47.5224 9.63832 47.2757 8.43832 46.7836 7.42821C46.2915 6.41809 45.581 5.64694 44.6521 5.11346C43.7425 4.56061 42.644 4.28547 41.3553 4.28547C40.0666 4.28547 38.9308 4.57094 37.9454 5.14317C36.9792 5.7141 36.2212 6.51497 35.6713 7.54317C35.1406 8.57137 34.876 9.77137 34.876 11.1432C34.876 12.4956 35.1317 13.6866 35.643 14.7148C36.1736 15.743 36.9034 16.5529 37.831 17.1432C38.778 17.7141 39.8585 18.0009 41.0713 18.0009L41.0739 17.9996ZM57.188 4.57094L54.0621 9.14231L50.9361 4.57094H48.3781L52.8402 10.943L48.0941 17.7141H50.6522L54.0621 12.7423L57.472 17.7141H60.03L55.2839 10.943L59.7461 4.57094H57.188ZM64.2905 23.9996V4.57094H62.0164V23.9996H64.2905ZM75.2319 11.1419C75.2319 9.71324 74.9377 8.49387 74.3506 7.48504C73.7634 6.45684 72.9771 5.66631 71.9917 5.11346C71.0255 4.56061 69.9449 4.28547 68.7514 4.28547C67.6708 4.28547 66.7149 4.5619 65.8811 5.11346C65.0665 5.66631 64.4228 6.45684 63.9487 7.48504C63.4939 8.49516 63.2665 9.71324 63.2665 11.1419C63.2665 12.5511 63.4939 13.7705 63.9487 14.7987C64.4228 15.8269 65.0665 16.6174 65.8811 17.1703C66.7149 17.7231 67.6721 17.9983 68.7514 17.9983C69.9449 17.9983 71.0255 17.7219 71.9917 17.1703C72.9771 16.6174 73.7634 15.8269 74.3506 14.7987C74.9377 13.7705 75.2319 12.5511 75.2319 11.1419ZM72.9296 11.1419C72.9296 12.152 72.7214 13.0084 72.3039 13.7137C71.9056 14.419 71.366 14.9524 70.6837 15.3141C70.0208 15.6758 69.282 15.8566 68.4674 15.8566C67.8045 15.8566 67.1505 15.6758 66.5068 15.3141C65.8631 14.9524 65.3325 14.419 64.9149 13.7137C64.4986 13.0084 64.2892 12.152 64.2892 11.1419C64.2892 10.1318 64.4973 9.27535 64.9149 8.57008C65.3312 7.8648 65.8618 7.33262 66.5068 6.96965C67.1505 6.60797 67.8045 6.42713 68.4674 6.42713C69.282 6.42713 70.0208 6.60797 70.6837 6.96965C71.366 7.33133 71.9056 7.8648 72.3039 8.57008C72.7201 9.27535 72.9296 10.1318 72.9296 11.1419ZM80.6397 4.56965H78.3656V17.7128H80.6397V4.56965ZM84.5905 7.08461L85.8407 5.19871C85.5002 4.83703 85.1212 4.59807 84.7036 4.4844C84.3053 4.35135 83.8698 4.28418 83.3957 4.28418C82.7892 4.28418 82.1918 4.52185 81.6046 4.9985C81.0175 5.47514 80.5344 6.12229 80.1554 6.94123C79.7956 7.7408 79.6157 8.66567 79.6157 9.71324H80.6384C80.6384 9.08418 80.695 8.52229 80.8093 8.02756C80.9417 7.53284 81.1691 7.14145 81.4916 6.85598C81.814 6.57051 82.2586 6.42713 82.8278 6.42713C83.2068 6.42713 83.519 6.48397 83.7657 6.59893C84.0124 6.69451 84.286 6.85598 84.5892 7.08461H84.5905ZM92.7504 17.9996C94.1521 17.9996 95.365 17.7231 96.3877 17.1716C97.4297 16.6007 98.2918 15.7623 98.974 14.6566L97.1265 13.485C96.6524 14.2846 96.0755 14.8853 95.3932 15.2857C94.711 15.6667 93.9247 15.8566 93.0343 15.8566C92.1439 15.8566 91.3859 15.6667 90.7602 15.2857C90.1345 14.9046 89.6617 14.3531 89.3392 13.6284C89.0167 12.9051 88.8561 12.028 88.8561 10.9998C88.8754 9.98967 89.045 9.14231 89.3675 8.45641C89.7079 7.75113 90.182 7.21895 90.7885 6.85598C91.4142 6.47492 92.1619 6.28504 93.033 6.28504C93.7718 6.28504 94.4155 6.44651 94.9654 6.77072C95.5153 7.09494 95.9406 7.54188 96.2438 8.11411C96.5663 8.68504 96.7269 9.3619 96.7269 10.1434C96.7269 10.2764 96.6986 10.4482 96.6421 10.6575C96.5855 10.8487 96.529 10.9907 96.4712 11.0863L97.3808 9.77137H88.0017V11.7141H99.1706C99.1706 11.6766 99.1706 11.5901 99.1706 11.4571C99.1899 11.3046 99.1989 11.1613 99.1989 11.0282C99.1989 9.63832 98.9522 8.43832 98.4601 7.42821C97.9667 6.41809 97.2562 5.64694 96.3286 5.11346C95.4189 4.56061 94.3204 4.28547 93.0318 4.28547C91.7431 4.28547 90.606 4.57094 89.6219 5.14317C88.6557 5.7141 87.8976 6.51497 87.3477 7.54317C86.8171 8.57137 86.5524 9.77137 86.5524 11.1432C86.5524 12.4956 86.8081 13.6866 87.3195 14.7148C87.8501 15.743 88.5799 16.5529 89.5075 17.1432C90.4544 17.7141 91.5349 18.0009 92.7478 18.0009L92.7504 17.9996ZM102.858 13.6853L101.067 14.8C101.314 15.3141 101.673 15.8192 102.147 16.3139C102.64 16.8099 103.237 17.2194 103.939 17.5423C104.64 17.8472 105.426 17.9996 106.297 17.9996C107.643 17.9996 108.722 17.6185 109.538 16.8564C110.372 16.0943 110.788 15.1423 110.788 13.9991C110.788 13.2177 110.598 12.5808 110.22 12.0848C109.86 11.5901 109.367 11.1703 108.742 10.828C108.117 10.4663 107.426 10.1331 106.667 9.82821C106.213 9.63832 105.777 9.43811 105.36 9.22756C104.943 9.0183 104.601 8.78063 104.337 8.51324C104.071 8.24715 103.939 7.94231 103.939 7.59871C103.939 7.16082 104.109 6.8366 104.45 6.62735C104.79 6.41809 105.198 6.31346 105.672 6.31346C106.354 6.31346 106.96 6.47492 107.491 6.79914C108.041 7.12336 108.496 7.53284 108.856 8.02756L110.675 6.85598C110.409 6.36125 110.04 5.92336 109.566 5.54102C109.092 5.15996 108.543 4.85512 107.918 4.62648C107.311 4.39785 106.657 4.28418 105.957 4.28418C105.255 4.28418 104.573 4.40818 103.91 4.65619C103.267 4.9042 102.736 5.28526 102.318 5.79936C101.92 6.31346 101.721 6.9619 101.721 7.74209C101.721 8.5042 101.91 9.14231 102.289 9.65641C102.687 10.1524 103.17 10.5619 103.738 10.8848C104.325 11.1897 104.903 11.4558 105.471 11.6844C105.983 11.8756 106.466 12.0848 106.921 12.3135C107.375 12.5227 107.744 12.7901 108.029 13.113C108.333 13.4179 108.484 13.7989 108.484 14.2562C108.484 14.7703 108.294 15.1798 107.916 15.4846C107.557 15.7701 107.054 15.9135 106.411 15.9135C105.88 15.9135 105.388 15.8179 104.933 15.628C104.497 15.4187 104.109 15.1423 103.768 14.8C103.427 14.4577 103.124 14.0857 102.858 13.6853ZM114.321 13.6853L112.53 14.8C112.777 15.3141 113.137 15.8192 113.611 16.3139C114.103 16.8099 114.7 17.2194 115.4 17.5423C116.102 17.8472 116.888 17.9996 117.759 17.9996C119.104 17.9996 120.184 17.6185 121 16.8564C121.833 16.0943 122.25 15.1423 122.25 13.9991C122.25 13.2177 122.06 12.5808 121.682 12.0848C121.322 11.5901 120.829 11.1703 120.204 10.828C119.579 10.4663 118.887 10.1331 118.129 9.82821C117.674 9.63832 117.239 9.43811 116.821 9.22756C116.405 9.0183 116.063 8.78063 115.799 8.51324C115.534 8.24715 115.4 7.94231 115.4 7.59871C115.4 7.16082 115.571 6.8366 115.913 6.62735C116.253 6.41809 116.661 6.31346 117.135 6.31346C117.817 6.31346 118.424 6.47492 118.953 6.79914C119.503 7.12336 119.958 7.53284 120.317 8.02756L122.137 6.85598C121.872 6.36125 121.502 5.92336 121.028 5.54102C120.554 5.15996 120.005 4.85512 119.379 4.62648C118.773 4.39785 118.119 4.28418 117.419 4.28418C116.717 4.28418 116.035 4.40818 115.372 4.65619C114.728 4.9042 114.198 5.28526 113.78 5.79936C113.382 6.31346 113.183 6.9619 113.183 7.74209C113.183 8.5042 113.373 9.14231 113.751 9.65641C114.149 10.1524 114.632 10.5619 115.2 10.8848C115.788 11.1897 116.365 11.4558 116.934 11.6844C117.446 11.8756 117.929 12.0848 118.384 12.3135C118.839 12.5227 119.207 12.7901 119.492 13.113C119.796 13.4179 119.947 13.7989 119.947 14.2562C119.947 14.7703 119.757 15.1798 119.379 15.4846C119.02 15.7701 118.517 15.9135 117.874 15.9135C117.343 15.9135 116.851 15.8179 116.396 15.628C115.961 15.4187 115.573 15.1423 115.231 14.8C114.89 14.4577 114.587 14.0857 114.321 13.6853Z" fill="#FCCF2F"/>
<path d="M0 4.57137V6.71432H6.53713V4.57137H0ZM2.13151 0V17.7145H4.40562V0H2.13151ZM7.68061 11.1436C7.68061 12.4586 7.97483 13.6392 8.56199 14.6868C9.16843 15.715 9.983 16.5249 11.0057 17.1152C12.0284 17.7055 13.1745 18.0013 14.4439 18.0013C15.7325 18.0013 16.8786 17.7055 17.882 17.1152C18.9047 16.5249 19.7103 15.715 20.2975 14.6868C20.9039 13.6392 21.2071 12.4586 21.2071 11.1436C21.2071 9.81055 20.9039 8.62863 20.2975 7.60043C19.7103 6.57223 18.9047 5.76233 17.882 5.17201C16.8773 4.5817 15.7313 4.2859 14.4439 4.2859C13.1745 4.2859 12.0284 4.5817 11.0057 5.17201C9.983 5.76233 9.16843 6.57223 8.56199 7.60043C7.97483 8.62863 7.68061 9.81055 7.68061 11.1436ZM9.983 11.1436C9.983 10.2291 10.1732 9.42045 10.5509 8.71518C10.9492 7.99182 11.4798 7.42992 12.1428 7.02949C12.825 6.62906 13.592 6.42885 14.4452 6.42885C15.2983 6.42885 16.0563 6.62906 16.7193 7.02949C17.4015 7.42992 17.9321 7.99182 18.3112 8.71518C18.7094 9.42045 18.9086 10.2291 18.9086 11.1436C18.9086 12.0581 18.7094 12.868 18.3112 13.572C17.9321 14.2773 17.4015 14.8392 16.7193 15.2577C16.0563 15.6581 15.2983 15.8583 14.4452 15.8583C13.592 15.8583 12.825 15.6581 12.1428 15.2577C11.4798 14.8392 10.9492 14.2773 10.5509 13.572C10.1719 12.8667 9.983 12.0581 9.983 11.1436ZM34.2891 4.57137H31.731L27.6954 14.7436L28.6333 14.8573L24.4847 4.57137H21.7853L26.7871 15.857L23.2063 24H25.7644L34.2904 4.57137H34.2891Z" fill="white"/>
</svg>
